<svg width="512" height="512" viewBox="0 0 512 512" fill="none" xmlns="http://www.w3.org/2000/svg">
  <rect width="512" height="512" rx="28" fill="#101D3F"/>
  <path d="M129 127L255 70L383 127V337L256 409L129 337V127Z" fill="#274C7E" stroke="#E9F4FF" stroke-width="8"/>
  <rect x="105" y="143" width="302" height="232" rx="18" fill="#EE334E" stroke="#F7FCFF" stroke-width="8"/>
  <path d="M255 88L398 206L256 334L113 206L255 88Z" fill="#172A55" stroke="#F7FCFF" stroke-width="8"/>
  <path d="M256 78C280 111 286 137 276 156C270 168 258 174 256 195C254 174 242 168 236 156C226 137 232 111 256 78Z" fill="#101D3F" stroke="#F7FCFF" stroke-width="5"/>
  <text x="256" y="214" text-anchor="middle" font-family="Arial, Helvetica, sans-serif" font-size="67" font-weight="900" letter-spacing="3" fill="white">SYIFA</text>
  <text x="256" y="282" text-anchor="middle" font-family="Arial, Helvetica, sans-serif" font-size="48" font-weight="900" letter-spacing="2" fill="white">KONVEKSI</text>
  <circle cx="135" cy="249" r="11" fill="#172A55" stroke="#D6E8F7" stroke-width="4"/>
  <circle cx="377" cy="249" r="11" fill="#172A55" stroke="#D6E8F7" stroke-width="4"/>
  <path d="M135 249H118M377 249H394" stroke="#D6E8F7" stroke-width="4" stroke-linecap="round"/>
  <rect x="109" y="407" width="294" height="22" rx="6" fill="#F4CE77"/>
  <path d="M137 407V429M165 407V419M193 407V429M221 407V419M249 407V429M277 407V419M305 407V429M333 407V419M361 407V429" stroke="#7B5B22" stroke-width="4" stroke-linecap="round"/>
  <path d="M182 386H307C321 386 332 397 332 411H155C155 397 166 386 182 386Z" fill="#F8FAFC"/>
  <path d="M202 344H282C312 344 336 368 336 398V411H274V388H214V411H155V391C155 365 176 344 202 344Z" fill="#F8FAFC" stroke="#243653" stroke-width="6"/>
  <path d="M214 344V388M274 344V388" stroke="#243653" stroke-width="6" stroke-linecap="round"/>
  <circle cx="300" cy="365" r="9" fill="#D7314A"/>
  <circle cx="329" cy="365" r="9" fill="#2A7FD1"/>
  <circle cx="304" cy="394" r="7" fill="#F1C96C"/>
  <path d="M369 357C395 380 396 407 379 426C362 407 363 380 369 357Z" fill="#FDF2F2" stroke="#243653" stroke-width="5"/>
  <path d="M404 357C378 380 377 407 394 426C411 407 410 380 404 357Z" fill="#FDF2F2" stroke="#243653" stroke-width="5"/>
  <path d="M382 392L402 429M392 392L372 429" stroke="#243653" stroke-width="5" stroke-linecap="round"/>
</svg>
